<svg width="165" height="32" viewBox="0 0 165 32" fill="none" xmlns="http://www.w3.org/2000/svg">
  <path d="M128.37 11.2782H124.485V24.9316H128.37V11.2782Z" fill="black" />
  <path d="M128.37 6.77836H124.485V9.79731H128.37V6.77836Z" fill="black" />
  <path d="M43.6497 6.77836H39.5893V24.9316H51.9881V21.4513H43.6497V6.77836Z" fill="black" />
  <path
    d="M60.0124 10.1422C55.6905 10.1422 52.2695 13.4776 52.2695 17.6808C52.2695 21.884 55.6905 25.2282 60.0124 25.2282C64.3343 25.2282 67.784 21.8928 67.784 17.6874C67.784 13.4819 64.3607 10.1422 60.0124 10.1422ZM60.0124 21.6248C57.8372 21.6248 56.2134 19.9725 56.2134 17.6698C56.2134 15.3671 57.8372 13.728 60.0124 13.728C62.1877 13.728 63.8114 15.4089 63.8114 17.6698C63.8114 19.9307 62.1877 21.6248 60.0124 21.6248Z"
    fill="black" />
  <path
    d="M84.0761 21.8577C83.3796 21.8577 82.7709 21.4512 82.7709 20.2054V14.407H86.4754V11.2781H82.7709V7.34296H78.8862V11.2781H73.7844V7.34296H69.8997V11.2781H67.7838V14.407H69.8997V20.2625C69.8997 23.5385 71.4664 25.2216 74.3645 25.2216C75.6731 25.2241 76.9536 24.8421 78.0469 24.123L76.9483 21.2534C76.3982 21.6253 75.7552 21.8361 75.0917 21.862C74.3951 21.862 73.7865 21.4556 73.7865 20.2098V14.407H78.8885V20.2625C78.8885 23.5385 80.4529 25.2216 83.3532 25.2216C84.6618 25.2237 85.9423 24.8417 87.0358 24.123L85.9372 21.2534C85.3856 21.625 84.7407 21.8344 84.0761 21.8577Z"
    fill="black" />
  <path
    d="M108.637 16.6591C108.043 12.5833 104.49 9.70061 100.586 10.2697C99.6041 10.4037 98.6588 10.7325 97.8057 11.2367C96.9525 11.7408 96.2085 12.4103 95.6175 13.2058C95.0264 14.0012 94.6002 14.9067 94.3637 15.8691C94.1273 16.8315 94.0854 17.8314 94.2405 18.8102C94.9282 23.5452 98.9996 25.738 103.187 25.1271C105.084 24.8605 106.861 24.0422 108.296 22.774L106.459 20.2274C105.411 21.1337 104.123 21.7181 102.75 21.9105C100.856 22.1851 99.083 21.471 98.336 19.5638L108.751 18.0478C108.738 17.5831 108.7 17.1196 108.637 16.6591ZM97.9053 17.0173C98.0152 15.1563 99.2764 13.7413 100.94 13.5018C101.785 13.3704 102.649 13.5516 103.37 14.0114C104.091 14.4713 104.62 15.1783 104.857 16L97.9053 17.0173Z"
    fill="black" />
  <path
    d="M150.807 16.6591C150.214 12.5833 146.659 9.70061 142.757 10.2697C141.775 10.4035 140.829 10.732 139.976 11.2361C139.123 11.7402 138.379 12.4097 137.788 13.2052C137.197 14.0008 136.77 14.9064 136.534 15.8689C136.298 16.8314 136.256 17.8314 136.411 18.8102C137.099 23.5452 141.168 25.738 145.358 25.1271C147.254 24.8605 149.03 24.0421 150.465 22.774L148.63 20.2274C147.581 21.1337 146.292 21.7181 144.919 21.9105C143.025 22.1851 141.252 21.471 140.505 19.5638L150.922 18.0478C150.908 17.5832 150.87 17.1197 150.807 16.6591ZM140.076 17.0173C140.186 15.1563 141.445 13.7413 143.111 13.5018C143.955 13.3697 144.818 13.5508 145.538 14.0109C146.258 14.4711 146.785 15.1785 147.019 16L140.076 17.0173Z"
    fill="black" />
  <path d="M134.748 6.77836H130.863V24.9294H134.748V6.77836Z" fill="black" />
  <path
    d="M158.852 15.8549C157.518 15.5649 156.301 15.3034 156.301 14.4926C156.301 13.884 157.142 13.4775 158.041 13.4775C159.444 13.4998 160.824 13.8473 162.07 14.4926L163.376 11.5923C161.754 10.6006 159.881 10.0971 157.981 10.1422C155.257 10.1422 152.357 11.7088 152.357 14.6662C152.357 17.4501 154.705 18.4014 157.577 19.1595C158.823 19.5088 160.071 19.711 160.071 20.5811C160.071 21.4512 158.592 21.7983 157.691 21.7983C156.051 21.8303 154.451 21.286 153.17 20.2603L151.777 23.2507C152.59 24.0043 154.589 25.2281 157.691 25.2281C160.39 25.2281 164.013 24.0395 164.013 20.4712C164.013 17.5072 161.326 16.4394 158.852 15.8549Z"
    fill="black" />
  <path d="M92.4828 11.2782H88.5981V24.9316H92.4828V11.2782Z" fill="black" />
  <path d="M92.4828 6.77836H88.5981V9.79731H92.4828V6.77836Z" fill="black" />
  <path
    d="M110.291 24.9316H114.343V17.5139H121.213V14.0709H114.343V10.2521H122.69V6.77836H110.291V24.9316Z"
    fill="black" />
  <path
    d="M23.9034 0H8.09673C3.62504 0 0 3.62501 0 8.09668V23.9033C0 28.375 3.62504 32 8.09673 32H23.9034C28.3751 32 32.0002 28.375 32.0002 23.9033V8.09668C32.0002 3.62501 28.3751 0 23.9034 0Z"
    fill="#00DDB3" />
  <path
    d="M24.321 7.16717C18.8126 7.16717 16.7714 11.1002 15.13 14.2597L14.0578 16.2812C12.3198 19.6319 11.0213 21.6687 7.67498 21.6687C7.46723 21.6687 7.2615 21.7096 7.06957 21.7891C6.87763 21.8686 6.70322 21.9851 6.55632 22.132C6.40941 22.2789 6.29283 22.4533 6.21332 22.6453C6.13382 22.8372 6.09295 23.0429 6.09295 23.2507C6.09353 23.6701 6.2604 24.0721 6.55696 24.3687C6.85351 24.6652 7.25559 24.8321 7.67498 24.8326C13.1856 24.8326 15.2267 20.8997 16.8681 17.7401L17.9381 15.7187C19.6783 12.3679 20.9768 10.3311 24.321 10.3311C24.5289 10.3314 24.7348 10.2907 24.927 10.2113C25.1192 10.132 25.2939 10.0155 25.441 9.86857C25.5882 9.72164 25.7049 9.54714 25.7846 9.35506C25.8642 9.16298 25.9052 8.95709 25.9052 8.74915C25.9046 8.32938 25.7374 7.92701 25.4404 7.63039C25.1434 7.33377 24.7407 7.16717 24.321 7.16717Z"
    fill="white" />
</svg>
