<svg viewBox="0 0 24 24" xmlns="http://www.w3.org/2000/svg">
  <path
    d="M17.9275 0.000244141H6.07252C2.71877 0.000244141 0 2.719 0 6.07275V17.9277C0 21.2815 2.71877 24.0002 6.07252 24.0002H17.9275C21.2812 24.0002 24 21.2815 24 17.9277V6.07275C24 2.719 21.2812 0.000244141 17.9275 0.000244141Z"
    fill="#00DDB3"
  />
  <path
    d="M18.2405 5.37556C14.1093 5.37556 12.5783 8.3253 11.3474 10.695L10.5432 12.2111C9.23972 14.7241 8.26585 16.2517 5.7561 16.2517C5.60029 16.2517 5.44599 16.2824 5.30204 16.342C5.15809 16.4016 5.02728 16.489 4.9171 16.5992C4.80693 16.7094 4.71949 16.8402 4.65986 16.9841C4.60023 17.1281 4.56958 17.2824 4.56958 17.4382C4.57002 17.7527 4.69517 18.0543 4.91759 18.2767C5.14 18.4991 5.44156 18.6242 5.7561 18.6247C9.88903 18.6247 11.4199 15.6749 12.6509 13.3052L13.4534 11.7892C14.7586 9.27613 15.7324 7.74854 18.2405 7.74854C18.3965 7.74875 18.5509 7.71822 18.6951 7.65869C18.8392 7.59916 18.9702 7.5118 19.0806 7.40161C19.1909 7.29141 19.2785 7.16054 19.3382 7.01648C19.3979 6.87242 19.4287 6.718 19.4287 6.56205C19.4282 6.24722 19.3029 5.94544 19.0801 5.72298C18.8573 5.50051 18.5554 5.37556 18.2405 5.37556Z"
    fill="white"
  />
</svg>
